<mxfile host="app.diagrams.net" modified="2023-07-07T17:00:59.863Z" agent="Mozilla/5.0 (Macintosh; Intel Mac OS X 10_15_7) AppleWebKit/537.36 (KHTML, like Gecko) Chrome/114.0.0.0 Safari/537.36" version="21.6.1" etag="VLKSZfabLhC7R4_1Utnw" type="github">
  <diagram name="Page-1" id="0KDZ3Sw5ejaPqqcXwOJN">
    <mxGraphModel>
      <root>
        <mxCell id="0" />
        <mxCell id="1" parent="0" />
      </root>
    </mxGraphModel>
  </diagram>
</mxfile>
